<svg xmlns='http://www.w3.org/2000/svg' viewBox='0 0 960 520'><defs><linearGradient id='sky' x2='0' y2='1'><stop stop-color='#15221f'/><stop offset='1' stop-color='#937d55'/></linearGradient></defs><rect width='960' height='520' fill='url(#sky)'/><path fill="#e4d4ae" d="M0 0h960v520H0z"/><circle cx="760" cy="105" r="54" fill="#eecf79"/><path fill="#d0b77f" d="M0 360q220-80 480 0t480-5v165H0Z"/><path fill="#566447" d="M95 420V165h24v255m-36-195q50-100 115 0m-108-18q-72-43-92 0m785 215V180h24v240m-35-190q50-90 110 0"/><path fill="#8c7652" d="M375 285h220v135H375z"/><path fill="#a98d57" d="m355 285 130-115 130 115Z"/><path fill="#dbc99f" d="M470 332h34v88h-34z"/><rect width='960' height='520' fill='#11130f' opacity='.08'/></svg>
